<?xml version="1.0" standalone="no"?>
<!DOCTYPE svg PUBLIC "-//W3C//DTD SVG 20010904//EN"
 "http://www.w3.org/TR/2001/REC-SVG-20010904/DTD/svg10.dtd">
<svg version="1.0" xmlns="http://www.w3.org/2000/svg"
 width="954.000000pt" height="954.000000pt" viewBox="0 0 954.000000 954.000000"
 preserveAspectRatio="xMidYMid meet">
<metadata>
Created by potrace 1.14, written by Peter Selinger 2001-2017
</metadata>
<g transform="translate(0.000000,954.000000) scale(0.100000,-0.100000)"
fill="#000000" stroke="none">
<path d="M5895 7708 c-128 -27 -232 -178 -301 -437 -14 -53 -27 -100 -28 -106
-2 -5 -6 -32 -11 -60 -4 -27 -10 -54 -13 -60 -3 -5 -7 -16 -7 -25 -2 -20 -25
-121 -32 -140 -3 -8 -7 -26 -8 -40 -1 -14 -9 -52 -17 -85 -18 -68 -33 -146
-30 -157 1 -5 -3 -8 -9 -8 -5 0 -8 -3 -6 -8 4 -5 -19 -131 -37 -207 -2 -5 -6
-28 -10 -50 -4 -22 -10 -47 -13 -55 -3 -8 -7 -27 -9 -42 -2 -15 -13 -67 -24
-115 -11 -48 -23 -101 -25 -116 -2 -16 -11 -54 -19 -85 -7 -31 -17 -77 -21
-102 -4 -25 -9 -54 -12 -65 -2 -11 -6 -33 -9 -50 -3 -16 -8 -37 -11 -45 -3 -8
-7 -22 -9 -30 -2 -8 -6 -31 -10 -50 -4 -19 -6 -39 -5 -44 1 -4 -4 -14 -10 -22
-6 -8 -9 -14 -6 -14 3 0 0 -21 -8 -47 -8 -27 -22 -77 -31 -113 -9 -36 -22 -68
-28 -72 -6 -4 -8 -8 -4 -8 8 0 -26 -99 -60 -170 -37 -79 -80 -136 -118 -156
-29 -16 -37 -16 -76 -4 -39 12 -128 73 -137 93 -1 4 -13 18 -26 30 -19 18 -62
80 -133 192 -6 11 -18 31 -24 45 -7 14 -25 44 -40 67 -15 23 -28 44 -28 48 0
3 -11 23 -25 45 -14 22 -22 40 -18 40 5 0 3 4 -2 8 -17 12 -65 80 -65 91 0 6
-3 11 -7 12 -5 0 -28 26 -52 57 -24 31 -66 75 -93 97 -27 22 -55 45 -61 50
-25 21 -124 65 -177 79 -92 24 -234 7 -339 -41 -38 -17 -168 -91 -186 -105 -5
-4 -24 -19 -41 -33 -18 -14 -34 -25 -38 -25 -3 0 -19 -12 -35 -27 -16 -16 -55
-50 -87 -78 -57 -50 -87 -78 -224 -208 -134 -127 -300 -266 -300 -251 0 5 -7
-2 -16 -14 -8 -12 -20 -20 -25 -17 -5 4 -9 2 -9 -3 0 -28 -280 -184 -415 -230
-86 -30 -105 -35 -185 -50 -47 -9 -327 -9 -420 0 -68 7 -141 17 -210 31 -23 5
-98 16 -145 23 -11 1 -63 9 -115 17 -189 31 -342 37 -465 18 -33 -5 -63 -7
-67 -4 -5 2 -8 -1 -8 -6 0 -6 -11 -11 -23 -11 -110 0 -441 -193 -493 -287 -10
-18 -21 -33 -24 -33 -4 0 -7 -21 -9 -47 -1 -41 3 -54 29 -85 24 -28 39 -38 61
-38 42 0 87 22 134 65 22 20 56 48 75 63 19 15 37 30 40 33 21 25 178 92 245
105 102 19 321 24 385 8 14 -3 48 -8 75 -9 28 -2 64 -7 80 -10 117 -23 261
-42 460 -61 86 -8 244 -9 305 -1 25 4 65 9 90 11 61 7 189 32 220 44 14 5 30
11 35 12 91 23 301 122 404 192 56 38 234 170 241 178 3 4 37 33 75 66 72 60
120 101 139 119 57 54 266 243 321 290 39 33 72 63 73 68 2 4 10 7 18 7 8 0
14 4 14 8 0 12 100 69 155 87 75 25 128 21 199 -14 79 -39 235 -190 236 -228
0 -6 4 -13 9 -15 5 -1 46 -70 91 -153 177 -324 281 -446 445 -522 80 -36 197
-38 263 -4 91 47 151 118 222 262 22 46 45 92 51 101 5 10 9 23 9 29 0 6 7 27
16 47 29 67 44 106 49 132 1 3 12 39 24 80 25 80 32 104 32 107 0 2 5 17 10
35 17 57 46 170 63 248 9 41 19 84 21 95 15 67 77 365 82 390 2 17 9 50 14 75
5 25 16 79 24 120 8 41 16 84 19 95 2 11 9 49 16 85 6 36 14 72 17 80 4 8 5
19 4 23 -1 8 11 74 40 217 5 25 12 59 15 75 7 42 34 157 41 175 4 8 6 18 5 22
-3 12 40 133 65 186 27 55 49 66 74 35 8 -9 13 -17 11 -17 -2 -1 -1 -8 2 -16
22 -69 34 -137 41 -230 1 -14 5 -45 9 -70 3 -25 8 -83 11 -130 3 -47 7 -98 9
-115 4 -27 14 -270 21 -525 3 -98 13 -312 21 -460 3 -47 7 -143 9 -215 2 -71
7 -170 10 -220 4 -49 8 -133 10 -185 1 -52 6 -111 9 -130 3 -19 8 -84 11 -145
4 -60 8 -130 10 -155 2 -25 6 -90 9 -145 4 -55 11 -125 16 -155 5 -30 12 -71
15 -90 4 -30 12 -71 29 -150 2 -8 6 -22 9 -30 3 -8 13 -38 22 -66 36 -105 107
-174 197 -192 27 -5 48 -5 48 -1 0 5 8 9 18 9 10 0 23 5 30 12 7 7 12 9 12 5
0 -18 75 64 104 113 45 77 97 230 122 355 4 22 8 42 9 45 0 3 5 32 9 65 4 33
14 98 21 145 22 136 25 152 31 215 3 33 8 67 11 75 3 8 7 40 10 70 2 30 6 62
9 70 3 8 7 38 9 65 2 28 9 84 14 125 6 41 14 93 16 115 3 22 8 56 12 75 3 19
7 53 8 75 3 43 8 85 31 235 9 52 17 109 18 125 11 107 58 265 79 265 27 0 42
-168 41 -460 -1 -102 -2 -385 -4 -630 -1 -279 2 -471 8 -516 15 -96 49 -183
87 -221 18 -18 31 -35 29 -38 -2 -3 -1 -3 2 0 4 2 19 -2 33 -10 38 -19 146
-14 196 9 44 21 137 113 162 161 44 83 82 165 98 213 11 28 22 52 25 52 3 0 6
8 7 18 2 29 33 113 74 201 43 92 94 151 132 151 27 0 124 -60 176 -110 49 -46
136 -110 149 -110 7 0 12 -4 12 -8 0 -4 8 -8 18 -9 9 0 42 -6 72 -12 30 -6 66
-12 80 -12 41 -3 164 13 183 23 9 5 23 8 30 7 6 -1 19 1 27 4 29 11 315 119
368 138 54 20 79 23 255 34 54 4 111 11 128 17 42 14 73 78 65 131 -6 38 -37
76 -63 77 -7 0 -13 3 -13 8 0 12 -148 14 -223 2 -40 -6 -79 -12 -87 -13 -8 -1
-17 -4 -20 -8 -3 -3 -25 -10 -50 -16 -51 -12 -148 -46 -198 -69 -18 -8 -40
-17 -50 -19 -9 -2 -39 -12 -67 -23 -91 -36 -225 -64 -280 -58 -97 10 -149 38
-304 166 -46 38 -87 67 -92 65 -4 -3 -10 -1 -14 5 -3 5 -15 10 -26 10 -10 0
-19 4 -19 8 0 5 -26 8 -58 7 -95 -3 -182 -57 -258 -160 -16 -22 -33 -43 -39
-47 -5 -4 -6 -8 -2 -8 5 0 -1 -13 -12 -28 -40 -57 -122 -264 -146 -372 0 -3
-7 -23 -14 -44 -37 -109 -91 -168 -134 -149 -13 6 -24 17 -25 25 -1 7 -5 33
-9 58 -14 80 -9 382 11 663 6 72 18 313 18 332 0 15 -11 208 -18 301 -5 89 -7
101 -29 219 -17 89 -45 187 -56 195 -3 3 -9 14 -13 25 -3 11 -16 32 -28 46
-61 69 -117 76 -200 28 -124 -74 -187 -203 -234 -486 -2 -16 -7 -39 -10 -53
-7 -27 -9 -41 -23 -140 -6 -36 -12 -74 -14 -85 -3 -11 -8 -47 -13 -80 -4 -33
-8 -62 -9 -65 0 -3 -5 -34 -9 -70 -4 -36 -9 -78 -12 -95 -2 -16 -6 -55 -10
-85 -3 -30 -8 -62 -11 -70 -6 -16 -7 -26 -18 -182 -4 -60 -11 -108 -14 -108
-3 0 -6 -12 -5 -27 0 -16 -3 -59 -8 -98 -5 -38 -10 -85 -12 -103 -3 -18 -8
-52 -12 -75 -4 -23 -8 -46 -9 -52 0 -5 -6 -36 -14 -67 -7 -32 -12 -61 -13 -65
0 -5 -4 -14 -10 -20 -6 -7 -8 -13 -5 -13 3 0 -5 -30 -19 -67 -14 -38 -28 -76
-31 -85 -11 -36 -30 -17 -41 40 -26 130 -42 221 -40 229 1 4 -2 33 -6 63 -4
30 -8 89 -10 130 -2 41 -7 82 -9 90 -5 14 -16 173 -22 315 -1 33 -6 116 -9
185 -4 69 -9 163 -12 210 -2 47 -6 114 -9 150 -6 88 -16 420 -20 670 -3 255
-13 391 -49 710 -4 36 -18 122 -23 145 -3 11 -6 29 -8 40 -2 11 -7 31 -10 45
-3 14 -8 36 -11 49 -23 112 -91 248 -149 299 -50 44 -80 52 -140 40z"/>
<path d="M750 2545 l0 -685 23 -1 c187 -4 751 1 756 7 3 5 31 10 61 11 81 4
140 14 140 25 0 5 4 7 10 3 17 -10 125 52 172 100 85 86 113 222 74 352 -24
79 -87 157 -152 188 -46 22 -51 35 -23 59 32 28 89 101 89 114 0 6 4 12 10 14
11 3 22 54 23 105 0 20 5 30 11 26 6 -4 5 1 -2 10 -8 9 -11 21 -7 26 11 18
-25 115 -61 164 -31 42 -127 116 -158 121 -6 1 -15 4 -21 8 -5 3 -26 9 -45 13
-19 5 -46 10 -60 13 -14 4 -208 7 -432 9 l-408 3 0 -685z m750 424 c8 -3 26
-11 40 -19 14 -8 28 -13 33 -12 4 1 6 -1 5 -5 -1 -5 5 -22 14 -39 28 -51 10
-142 -35 -173 -43 -31 -110 -40 -298 -41 l-187 0 1 151 1 150 205 -4 c113 -2
213 -6 221 -8z m48 -549 c90 -21 128 -73 120 -165 -5 -63 -30 -97 -84 -117
-18 -6 -31 -14 -29 -17 3 -6 -347 -4 -440 2 l-40 2 -1 153 -1 152 216 0 c119
0 235 -5 259 -10z"/>
<path d="M2227 3223 c-4 -3 -7 -307 -7 -673 0 -554 2 -669 14 -679 12 -10 124
-15 274 -12 l42 1 0 685 0 685 -158 0 c-87 0 -162 -3 -165 -7z"/>
<path d="M2714 3217 c-2 -7 -3 -67 -2 -133 l3 -119 195 -1 c107 -1 205 -2 218
-3 l22 -1 0 -550 0 -550 33 -1 c173 -3 281 1 289 13 4 7 8 119 8 248 1 129 2
372 3 540 l2 305 210 0 210 0 3 133 3 132 -596 0 c-481 0 -597 -3 -601 -13z"/>
<path d="M4359 3198 c-1 -16 -1 -1329 0 -1345 1 -10 83 -13 374 -13 206 0 377
3 381 7 3 4 23 8 44 9 20 1 48 6 62 11 14 6 28 9 33 6 4 -2 7 1 7 7 0 7 6 10
13 7 13 -5 79 36 135 84 17 14 43 50 59 80 26 49 28 63 28 159 0 93 -3 112
-25 155 -33 66 -93 124 -157 154 -54 25 -64 37 -38 47 8 4 12 11 8 17 -3 5 -1
7 4 4 9 -6 58 35 89 75 18 23 35 58 28 58 -3 0 0 7 7 17 10 11 14 46 14 117
-1 117 -18 160 -89 231 -38 38 -129 90 -180 102 -11 2 -32 7 -46 10 -14 4
-188 8 -387 10 -294 3 -363 2 -364 -9z m714 -133 c15 -4 27 -11 27 -16 0 -5 7
-6 16 -2 9 3 19 2 23 -3 3 -5 20 -16 36 -24 17 -9 45 -37 63 -64 28 -42 32
-57 32 -113 0 -111 -50 -178 -166 -218 -65 -23 -81 -24 -331 -25 l-262 0 -3
242 -3 243 270 -7 c149 -3 282 -9 298 -13z m14 -607 c7 -5 16 -7 22 -4 5 4 20
2 33 -3 93 -36 116 -48 140 -73 55 -57 71 -185 34 -268 -25 -58 -120 -116
-201 -123 -17 -2 -35 -6 -40 -9 -6 -3 -135 -6 -287 -7 l-277 0 1 249 0 249
281 -1 c165 0 287 -4 294 -10z"/>
<path d="M5817 3203 c-2 -5 -4 -312 -3 -683 l1 -675 485 0 485 0 3 59 c2 32
-1 63 -6 68 -6 6 -172 10 -411 10 -367 0 -401 1 -401 16 -1 32 -1 347 -1 410
l1 62 350 0 350 0 6 23 c3 13 4 41 2 63 l-3 39 -352 3 -353 2 -1 58 c-1 71 -1
359 0 390 l1 22 395 0 395 0 0 70 0 70 -469 0 c-259 0 -472 -3 -474 -7z"/>
<path d="M7509 3203 c-1 -5 -1 -11 0 -15 0 -5 -4 -8 -10 -8 -6 0 -9 -9 -6 -20
3 -11 2 -18 -3 -15 -4 3 -13 -10 -21 -28 -7 -17 -31 -72 -55 -122 -62 -132
-75 -166 -67 -178 3 -5 2 -7 -4 -4 -5 4 -23 -22 -38 -56 -15 -34 -47 -105 -70
-157 -24 -52 -58 -129 -78 -170 -19 -41 -45 -97 -57 -125 -12 -27 -35 -77 -50
-110 -16 -33 -39 -85 -53 -115 -48 -108 -88 -195 -98 -213 -13 -24 3 -29 86
-25 l69 3 67 150 c37 83 72 161 78 174 6 13 9 27 7 30 -2 3 166 5 375 3 l379
-2 26 -58 c60 -129 73 -160 67 -166 -4 -3 -2 -6 4 -6 5 0 23 -29 38 -65 l28
-66 78 2 c44 1 79 6 79 11 0 6 -13 37 -28 71 -16 34 -42 91 -58 127 -15 36
-31 67 -34 70 -3 3 -6 11 -8 18 -2 10 -38 90 -117 257 -53 111 -105 226 -105
230 0 3 -25 57 -55 120 -30 64 -55 118 -55 122 0 3 -17 42 -38 87 -21 44 -56
120 -78 168 l-39 87 -77 1 c-43 0 -79 -3 -79 -7z m118 -260 c19 -43 50 -111
69 -151 19 -40 34 -75 34 -78 0 -3 14 -35 31 -72 17 -37 39 -85 49 -107 9 -22
32 -71 49 -109 17 -37 31 -74 31 -80 0 -10 -72 -13 -305 -13 -168 0 -305 2
-305 4 0 3 7 21 16 41 9 21 22 51 29 67 6 17 23 55 37 85 14 30 36 78 49 107
12 29 26 50 30 47 5 -3 6 1 3 9 -3 8 7 38 21 67 14 29 24 59 21 67 -3 8 -2 12
3 9 11 -7 73 133 64 147 -3 5 -1 7 5 3 6 -3 13 3 17 14 3 11 9 20 11 20 3 0
21 -35 41 -77z"/>
<path d="M8284 3140 l0 -70 233 0 233 0 2 -612 3 -613 78 -3 c57 -2 77 0 78
10 1 7 3 279 4 603 1 325 3 596 4 603 1 9 55 12 236 12 l235 0 0 70 0 70 -553
0 -552 0 -1 -70z"/>
</g>
</svg>
